<svg width="98" height="95" viewBox="0 0 98 95" fill="none" xmlns="http://www.w3.org/2000/svg">
<g id="Layer_1" clip-path="url(#clip0_819_10359)">
<g id="Group">
<path id="Vector" d="M93.7146 48.7521C93.7996 48.5632 93.5867 48.3966 93.2092 48.6915L93.1604 49.2354L93.712 48.7501L93.7146 48.7521Z" fill="white"/>
<path id="Vector_2" d="M90.61 49.9103C90.2828 50.4246 89.9986 51.1193 90.5337 51.2114C90.7197 50.5405 90.9283 50.5949 91.1155 49.837C91.4719 49.5046 91.8798 49.4596 91.9059 49.6349C91.9785 49.4405 92.566 49.2891 92.6291 48.9197C91.9201 48.9802 91.2529 49.442 90.7584 50.1647C90.5579 50.1961 90.6279 49.9997 90.6126 49.9123L90.61 49.9103Z" fill="white"/>
<path id="Vector_3" d="M75.3223 36.31L75.0598 36.4688C75.1403 36.4355 75.2298 36.38 75.3223 36.31Z" fill="white"/>
<path id="Vector_4" d="M70.7953 49.7754C70.9664 49.6371 71.0118 49.547 70.9928 49.507C70.8512 49.6558 70.7294 49.774 70.7953 49.7754Z" fill="white"/>
<path id="Vector_5" d="M66.4698 52.097C66.5656 52.0548 66.6456 52.0169 66.7322 51.9758C66.617 51.9945 66.5113 52.0332 66.4698 52.097Z" fill="white"/>
<path id="Vector_6" d="M75.3221 36.3106L76.0059 35.9078C75.9554 35.7636 75.6328 36.0848 75.3221 36.3106Z" fill="white"/>
<path id="Vector_7" d="M86.0917 54.8033C86.2135 54.6851 86.3004 54.5688 86.3701 54.4476C86.2718 54.5464 86.1749 54.6381 86.0688 54.7309C86.0762 54.7535 86.0837 54.7761 86.0891 54.8012L86.0917 54.8033Z" fill="white"/>
<path id="Vector_8" d="M68.1814 46.3154L68.1275 46.5287C68.1603 46.6046 68.2043 46.6767 68.255 46.7457L68.1814 46.3154Z" fill="white"/>
<path id="Vector_9" d="M69.7985 54.7286C69.6876 54.5706 69.3631 54.7605 69.1854 54.8056C69.3815 54.7958 69.5265 54.8674 69.6687 54.9746C69.7238 54.9256 69.7622 54.8552 69.7985 54.7286Z" fill="white"/>
<path id="Vector_10" d="M83.3866 54.8631L83.5911 54.6714C83.5412 54.7245 83.4447 54.7997 83.3866 54.8631Z" fill="white"/>
<path id="Vector_11" d="M71.5276 40.6008C71.5799 40.6249 71.6392 40.6295 71.6829 40.6218C71.6465 40.5933 71.5919 40.5882 71.5276 40.6008Z" fill="white"/>
<path id="Vector_12" d="M19.0684 58.4304C19.0949 58.4343 19.1099 58.4206 19.1359 58.4198C19.0911 58.3636 19.0607 58.3483 19.0684 58.4304Z" fill="white"/>
<path id="Vector_13" d="M21.0909 46.7095L21.0823 46.8702C21.147 46.8999 21.2138 46.927 21.2814 46.9423L21.0889 46.7121L21.0909 46.7095Z" fill="white"/>
<path id="Vector_14" d="M58.4809 54.7595C58.4809 54.7595 58.5 54.7619 58.5145 54.7648C58.7084 54.6989 58.5964 54.7243 58.4809 54.7595Z" fill="white"/>
<path id="Vector_15" d="M28.5082 55.3211C28.9486 55.5234 28.5678 55.598 28.2375 55.6829C28.0717 55.7289 27.9238 55.7681 27.8981 55.8276C27.8731 55.8917 27.9708 55.9808 28.314 56.0987C28.2037 55.9454 29.6325 55.6233 28.5102 55.3185L28.5082 55.3211Z" fill="white"/>
<path id="Vector_16" d="M85.851 54.9238C85.7417 55.01 85.6298 55.0941 85.5127 55.1741C85.6764 55.0719 85.7802 54.9982 85.851 54.9238Z" fill="white"/>
<path id="Vector_17" d="M28.314 56.1031L28.4536 56.1495C28.3946 56.1285 28.3626 56.116 28.3114 56.1011L28.314 56.1031Z" fill="white"/>
<path id="Vector_18" d="M55.4608 41.5543C55.3851 41.5495 55.2979 41.5859 55.216 41.6265C55.2506 41.641 55.3154 41.6331 55.4608 41.5543Z" fill="white"/>
<path id="Vector_19" d="M54.2767 54.3117C54.2098 54.2259 54.1389 54.1453 54.0747 54.0615C54.1423 54.1731 54.2147 54.2465 54.2767 54.3117Z" fill="white"/>
<path id="Vector_20" d="M60.6118 35.8671C60.7963 35.7812 60.8787 35.7829 61.0863 35.5979C61.0554 35.5946 61.025 35.596 60.9906 35.6025C60.9313 35.6943 60.8324 35.7886 60.6118 35.8671Z" fill="white"/>
<path id="Vector_21" d="M65.4213 36.2854C65.4477 36.2517 65.4658 36.2072 65.4844 36.1673C65.4653 36.1063 65.4568 36.0368 65.433 35.9763C65.4341 36.0819 65.4326 36.1854 65.4193 36.288L65.4213 36.2854Z" fill="white"/>
<path id="Vector_22" d="M40.4403 54.36C40.2313 54.4184 40.0671 54.4196 39.9211 54.3975C40.0612 54.4485 39.9048 54.7071 39.857 54.8163C39.8334 54.8732 39.8357 54.8917 39.92 54.8321C40.0018 54.7705 40.1667 54.64 40.4397 54.3554L40.4403 54.36Z" fill="white"/>
<path id="Vector_23" d="M85.9615 54.6387C85.9765 54.7426 85.9444 54.8264 85.8481 54.9227C85.9272 54.859 85.9971 54.7965 86.0691 54.7313C86.0571 54.6717 86.0303 54.6256 85.9615 54.6387Z" fill="white"/>
<path id="Vector_24" d="M59.3199 33.2152C59.7483 32.9727 60.1748 32.7328 60.6159 32.517C60.2365 32.6807 59.7675 32.9375 59.3199 33.2152Z" fill="white"/>
<path id="Vector_25" d="M31.7793 15.5137L32.0425 15.322C31.9287 15.3711 31.831 15.437 31.7793 15.5137Z" fill="white"/>
<path id="Vector_26" d="M66.3652 32.2933C66.6224 32.6496 66.8454 32.9958 67.0592 33.3433C67.1314 33.3955 67.2072 33.4591 67.2734 33.4816C67.0511 33.0647 66.7615 32.6537 66.3652 32.2933Z" fill="white"/>
<path id="Vector_27" d="M33.1168 60.6831C33.4112 60.5157 33.5684 60.3791 33.6459 60.2639C33.7241 60.1534 33.7232 60.069 33.693 59.9951C33.6307 59.85 33.4376 59.7491 33.4772 59.554C34.7123 58.5485 34.283 59.4394 34.8747 59.3414C35.2491 59.0022 35.542 58.6494 35.7906 58.2997C36.0393 57.9499 36.2734 57.6349 36.5687 57.418C36.6617 57.4489 36.7924 57.3837 36.7207 57.5663C36.8701 57.3273 37.0972 57.0905 37.364 56.8513C37.4972 56.7294 37.6421 56.6084 37.7917 56.4868C37.9387 56.3632 38.0815 56.2237 38.232 56.0902C38.8242 55.553 39.4228 54.9915 39.7164 54.4131C39.814 54.3848 39.8753 54.3867 39.9166 54.3981C39.603 54.3495 39.4137 54.1846 39.324 54.0264C39.757 53.6284 39.891 53.0507 40.2739 53.1285C40.0123 53.3718 40.0779 53.4859 40.0258 53.6755L40.3699 53.145C41.0861 53.0859 39.8778 53.8485 40.1101 54.0974C40.8682 53.1289 41.6274 51.9184 42.3135 51.3039C42.544 51.3839 42.2061 51.8103 41.9546 52.1368C41.6902 52.4533 41.5019 52.6618 42.0884 52.3672L40.9422 53.2538C42.2247 52.9847 40.2798 53.8324 41.5346 53.6631C41.9006 53.3507 42.1671 53.0904 42.3876 52.8568C42.6056 52.6212 42.7566 52.3961 42.9161 52.1818C43.2344 51.7484 43.5481 51.3155 44.2378 50.6537C44.3342 50.1722 43.8666 50.518 43.9583 50.0371C44.6266 48.8517 45.1696 48.6235 45.6568 48.4396C45.8969 48.347 46.1299 48.2739 46.3329 48.0895C46.5333 47.903 46.7199 47.6219 46.8877 47.1293C46.9149 46.8324 46.842 46.5618 46.8927 46.2455C46.9204 46.0871 46.9747 45.9161 47.0901 45.7259C47.2055 45.5357 47.3866 45.3257 47.6275 45.0662C47.6809 45.2922 47.7446 45.5263 47.7908 45.7509C48.8225 44.2135 47.736 44.4728 49.0416 43.0242C49.0329 43.4151 48.4216 44.3352 48.6197 44.1302C49.6144 43.2715 48.8617 43.2434 49.3116 42.4064L49.7962 42.4507C50.015 42.0106 50.2244 41.5506 50.4326 41.0813C50.5331 40.8459 50.6455 40.6114 50.733 40.3659C50.8205 40.1203 50.9101 39.8722 50.9991 39.6194C51.1782 39.1231 51.3587 38.6196 51.5434 38.1109L51.6851 37.7319L51.8072 37.3459L52.0632 36.5748C52.1437 36.7341 52.1387 37.1364 52.4509 36.7108C52.5494 36.3817 52.6591 36.0489 52.7735 35.7155C52.8879 35.3821 53.0188 35.0491 53.1202 34.7055C53.3375 34.0214 53.58 33.3318 53.8349 32.6478C54.3476 31.2653 54.7664 29.8261 55.0818 28.4817C54.995 28.1165 54.9114 27.7579 54.8113 27.399C54.8386 27.1608 55.026 26.9641 55.0778 27.2349C55.2989 26.1769 54.8386 27.1608 54.7214 26.6419C54.7258 26.0424 54.9777 25.8543 55.0792 26.2436C54.9583 25.2906 54.7716 23.951 54.5103 22.6158C54.3796 21.9483 54.2324 21.2803 54.0924 20.6515C53.9431 20.0237 53.8101 19.4339 53.714 18.9148L53.9643 19.2531C53.7643 18.4601 53.361 18.1193 53.0158 17.8114C52.6515 17.5011 52.338 17.2222 52.0525 16.5171L52.278 16.7104C51.8205 15.9629 51.2096 15.2669 50.5133 14.68C49.8164 14.0884 49.0318 13.625 48.2342 13.2477C47.4275 12.8927 46.6172 12.6227 45.8442 12.428C45.0717 12.2379 44.3388 12.0829 43.6703 11.9366C43.4127 12.2122 42.5669 12.1532 41.7581 12.2236C40.9496 12.2775 40.1952 12.4281 40.1717 12.8326C39.2098 12.8418 38.847 12.8132 38.3975 12.8257C38.1705 12.8322 37.9208 12.8462 37.5667 12.9082C37.2093 12.9634 36.7495 13.0641 36.0994 13.242C35.4153 13.4686 35.3055 14.0903 34.5529 14.5062L34.3678 14.1435C34.0638 14.4249 33.774 14.7256 33.4862 15.0237L32.7119 14.8574C32.4807 15.003 32.2604 15.1614 32.0355 15.3203C32.3318 15.1879 32.726 15.1657 32.7346 15.2938C32.2158 15.6624 31.5092 15.9552 30.9129 16.15C30.3223 16.3535 29.835 16.4411 29.7687 16.3599C28.9698 16.974 28.1844 17.6029 27.4365 18.2695C27.3991 18.0979 27.7793 17.7673 28.0489 17.455C26.9611 18.7056 27.5654 17.2649 26.5687 18.4151C26.782 18.3727 26.624 18.6762 26.646 18.7604C26.2847 18.8796 25.7601 19.1807 25.2276 19.5721C24.704 19.9788 24.1419 20.4349 23.7177 20.8859L23.7148 20.5151C21.9559 21.9062 20.3233 23.794 18.7017 25.6945C19.3802 25.0951 19.6104 25.5767 19.1783 26.1555L18.6616 26.0987C18.5617 26.6276 19.2756 25.6245 18.902 26.5673C18.5831 26.8998 18.3967 26.9507 18.3085 26.844C18.2204 26.7373 18.2362 26.4817 18.3587 26.2342C18.1484 26.5511 17.9614 26.8863 17.766 27.2108C17.6241 27.1834 17.7368 26.9325 17.6497 26.7763C17.6118 27.044 17.2181 27.3597 16.8399 27.7253C16.4694 28.0969 16.0988 28.5061 16.0918 28.911L15.9484 28.8909C15.5934 29.4086 15.3022 29.8716 15.0403 30.2863C14.7848 30.7144 14.5701 31.1117 14.3605 31.4919C14.1658 31.8797 13.9792 32.2571 13.7785 32.6527C13.5901 33.0538 13.3948 33.4746 13.1726 33.9456C13.4971 34.1409 13.0776 34.8427 13.1255 35.525C12.4507 36.8686 11.6333 38.4104 11.3493 40.2818C11.3454 41.6187 11.6036 40.7111 11.7408 41.3169C11.3705 41.362 11.2886 43.2534 11.1112 42.2603C11.0698 43.4045 11.1224 44.1451 11.2489 44.9517C11.3748 45.7538 11.5913 46.6434 12.1777 47.986C12.188 47.6465 12.1749 47.2887 12.3283 47.4297C12.4143 47.6729 12.4956 47.9543 12.5166 48.1843C12.5396 48.4117 12.509 48.5845 12.4193 48.5813L12.3347 48.4648C12.4411 48.6444 12.5363 48.8278 12.6346 49.0178C12.7483 49.1989 12.8533 49.3858 12.9562 49.5752C13.0591 49.7647 13.1606 49.9614 13.2601 50.1606C13.3749 50.351 13.4876 50.544 13.5984 50.7395C13.8071 51.1416 14.0711 51.5157 14.3122 51.9139C14.4328 52.1129 14.5789 52.2901 14.7102 52.4808C14.8475 52.6637 14.9753 52.8642 15.1255 53.0361C16.2746 54.4675 17.6992 55.5951 19.0024 55.8615L18.8593 55.8249C19.0702 55.8978 19.2797 55.978 19.49 56.0464L20.1259 56.2343C20.546 56.3663 20.979 56.4498 21.4003 56.5535C21.9497 56.7825 21.7611 56.7772 21.5274 56.7869C21.2952 56.7894 21.0155 56.7882 21.3994 57.0468C22.8276 57.2603 23.8734 57.5346 24.8758 57.8C25.8756 58.0633 26.8368 58.2797 27.9794 58.211C28.7938 58.7647 30.3673 58.937 32.0025 58.8435C32.4117 58.8288 32.8268 58.8229 33.2329 58.8016C33.6393 58.7638 34.0417 58.7312 34.4319 58.7142C35.2085 58.6689 35.936 58.7024 36.5382 58.7676L36.3778 58.5499C36.9586 58.2466 37.125 58.5904 37.5828 58.5886C37.496 58.416 36.8981 58.463 37.2572 58.2877C38.5323 58.0924 39.8043 57.7942 41.1043 57.5723C41.7491 57.428 42.3939 57.2836 43.0433 57.1387C43.368 57.0663 43.6964 57.0051 44.02 56.9234L44.9885 56.6598L45.9622 56.4002C46.2852 56.3139 46.616 56.2336 46.931 56.1201C47.5699 55.9083 48.2114 55.6986 48.8503 55.4869C49.1742 55.3887 49.4844 55.2546 49.7957 55.1298L50.731 54.748L51.6631 54.3596C51.9681 54.2215 52.2635 54.0633 52.5627 53.9165C54.2999 53.0025 52.9409 52.3742 55.2721 51.5358L54.9256 52.278C55.3023 51.9572 55.6899 51.6493 56.0859 51.3521C56.4819 51.0548 56.8548 50.7228 57.2482 50.4236C57.6384 50.1177 58.0338 49.8158 58.4323 49.5206L59.5768 48.5614C59.9555 48.2381 60.3483 47.9342 60.7088 47.5967C61.0662 47.2525 61.4189 46.9088 61.7638 46.5591C62.475 45.8805 63.0735 45.1053 63.6312 44.3233C63.5544 44.5605 63.6475 44.6502 63.395 44.9299C63.5897 44.831 63.8138 44.6463 64.0369 44.4148C64.2574 44.1812 64.4911 43.9202 64.6559 43.6347C65.0038 43.0779 65.2342 42.559 65.137 42.4745C65.5282 42.0228 65.4067 42.5098 65.7402 42.2977C66.409 41.791 66.634 40.3801 67.1374 40.1168C67.2235 40.0711 67.0981 40.3917 67.0297 40.5433C67.1194 40.2576 67.4787 39.6595 67.6906 39.1052C67.9052 38.5529 67.9792 38.0999 67.7135 38.3484C67.89 37.9464 68.0007 37.5054 68.0454 37.0631C68.055 36.9491 68.0658 36.8445 68.0682 36.7291C68.0653 36.6097 68.0672 36.4896 68.067 36.3722C68.0526 36.1391 68.025 35.9123 67.9794 35.6923C67.8063 34.8115 67.4509 34.0726 67.0424 33.3426C66.789 33.1903 66.5361 32.9463 66.2127 32.7015C65.8985 32.4555 65.5132 32.2042 65.1016 32.0453C64.6915 31.8792 64.2674 31.8111 63.9576 31.8324C63.6432 31.8543 63.4315 31.9482 63.3703 32.1012C63.3919 31.9506 63.1721 31.8623 62.825 31.867C62.4805 31.8738 62.027 31.9878 61.6164 32.1646C61.1991 32.3447 60.823 32.5737 60.5189 32.7963C60.2004 33.016 59.9423 33.2495 59.781 33.4288C59.8674 33.2703 59.6688 33.3368 59.4711 33.3914C59.2739 33.4507 59.0809 33.5047 59.1683 33.2968C58.2584 33.8868 57.5546 34.588 57.8897 34.7163C56.8918 35.0281 56.2202 35.8005 55.6802 36.4958C55.1366 37.2009 54.6966 37.8112 53.994 37.9438C53.0763 39.2606 52.335 40.5981 51.7076 41.9453C51.0659 43.3483 50.6627 44.7621 50.431 46.1761C50.1476 46.0674 50.304 45.2685 50.5304 44.5245C50.7517 43.7765 51.0352 43.0772 50.724 43.0094C50.277 44.3722 50.1714 45.4913 50.114 46.5812C50.0643 47.6771 50.0535 48.7448 50.081 50.1272C50.0781 50.4893 50.0035 50.3974 49.9131 50.1759C49.8325 49.9578 49.7387 49.6122 49.6885 49.4892C49.8544 50.9088 50.1087 52.3012 50.7059 53.5978C51.0027 54.2405 51.3897 54.8533 51.867 55.3777C52.3443 55.902 52.9144 56.3399 53.5309 56.6382C53.4984 56.6798 53.2089 56.5788 52.9587 56.4331C53.1762 56.5992 53.4382 56.7834 53.6461 56.9084C53.8615 57.0184 54.0262 57.0594 54.0639 56.9256C53.901 56.8609 53.7325 56.8086 53.5772 56.7289C53.3283 56.3247 53.8819 56.4733 54.4959 56.577C55.1211 56.677 55.8122 56.7196 55.8755 56.6226C55.3839 56.8869 55.942 57.1102 56.4834 57.2744C56.6172 57.3121 56.7489 57.3524 56.8601 57.3976C56.9708 57.4381 57.0597 57.4742 57.1134 57.5288C57.2149 57.6292 57.1696 57.778 56.7918 57.9931C57.1464 57.9734 57.5779 57.8715 57.5059 57.6853C57.9896 57.7415 58.1596 57.8452 57.6468 58.051C58.1156 58.0244 58.4126 57.9553 58.6256 57.8918C58.8418 57.8349 58.9713 57.7604 59.0979 57.7003C59.3484 57.5782 59.5792 57.4867 60.3345 57.3242C60.3596 57.4527 60.0648 57.5778 59.9286 57.7518C60.6751 57.3437 61.3509 56.9138 62.5776 56.5717C62.5333 56.671 62.713 56.7196 62.3482 56.8486C63.3833 56.4571 64.152 55.903 64.9189 55.3727C65.3101 55.1136 65.7002 54.8453 66.1238 54.5823C66.3382 54.4528 66.5624 54.3268 66.7991 54.2064C67.0346 54.0767 67.28 53.9505 67.5449 53.8313C67.2355 54.6653 68.3294 53.5995 68.6858 53.9413L69.6753 53.1372L69.1178 53.2074C69.5881 52.9223 69.9652 52.5475 70.3329 52.2114C70.7079 51.8768 71.0557 51.5503 71.4849 51.3335L70.9511 51.9835C71.4799 51.5432 72.0255 51.1244 72.5351 50.6606C72.1952 50.8594 71.8516 51.0469 71.4997 51.2237C72.228 50.3575 71.0386 50.8125 72.2507 50.0235C72.0574 50.2491 73.0996 49.3564 73.7091 49.1928C74.0168 48.7302 74.3061 48.2322 74.9739 47.775C75.2357 47.7455 75.2239 48.2848 75.3977 48.266C75.4592 47.9414 75.8846 47.4621 76.3301 46.9733C76.7709 46.485 77.1948 45.9542 77.2622 45.5631C77.1848 45.7957 77.367 45.9802 77.4585 45.9596C77.4782 45.774 77.4984 45.5931 77.5108 45.406C77.9216 45.0952 78.0104 45.0726 78.1119 45.2693C79.1522 44.149 77.3329 45.2374 78.6936 44.0287C78.6269 44.1566 78.7065 44.1352 78.56 44.3973C79.8325 43.0819 80.532 41.4981 81.5636 40.191C81.9042 40.1142 81.7352 40.4425 81.5619 40.7549C81.3859 41.0653 81.1913 41.3567 81.5268 41.2383C81.8515 40.722 82.1288 40.1644 82.4139 39.6129C82.7073 39.0134 82.9432 38.3857 83.1196 37.7324C83.294 37.0817 83.4141 36.4094 83.4107 35.7075C83.4013 35.0134 83.2775 34.2674 82.885 33.6294C82.9774 33.7896 83.0272 33.9667 83.0923 34.135C82.6783 34.0915 82.5935 33.6273 82.1848 33.1064C82.0784 32.9854 81.9719 32.8434 81.8331 32.7264C81.6903 32.6146 81.5427 32.4823 81.3647 32.41C81.2752 32.3693 81.1883 32.3305 81.0973 32.297C81.0043 32.2661 80.9109 32.2516 80.8175 32.2371C80.6276 32.2016 80.4393 32.2175 80.2651 32.2528C80.6045 32.2044 80.7743 31.9018 80.6596 31.9628C80.1329 31.8813 79.6154 31.9326 79.1332 32.0619C78.6516 32.1957 78.2053 32.4075 77.7692 32.665C77.3358 32.9245 76.923 33.2378 76.506 33.594C76.0911 33.9476 75.6748 34.3671 75.2657 34.788L75.376 34.4598C74.5622 34.9325 73.4496 35.9794 72.6483 36.6126C72.5457 36.9469 72.111 37.331 72.5436 37.276C71.0575 37.9761 70.0988 39.2063 69.3293 40.4674C68.9514 41.1054 68.5992 41.7426 68.2526 42.3673C67.8889 42.9871 67.5177 43.5843 67.0361 44.1621C67.1635 43.8389 67.2422 43.3478 67.1197 43.5952C66.9589 43.9718 66.8397 44.381 66.7094 44.7774C66.6087 45.1842 66.4903 45.5815 66.4252 45.9911C66.7711 45.8808 66.6741 45.7212 67.0632 45.3097C67.1333 45.6535 67.0838 46.3266 66.9791 46.8937C66.9724 46.3566 66.8799 46.3303 66.707 46.4923C66.5532 46.6567 66.3702 47.0242 66.2423 47.2465C66.3497 47.1841 66.4227 47.3584 66.5228 47.3321C66.1789 47.9213 66.3249 48.0022 66.4854 48.1236C66.5659 48.1866 66.6593 48.2597 66.6982 48.4241C66.7462 48.5874 66.7102 48.8313 66.6348 49.2539L66.4737 49.1655C66.5245 49.4858 66.5875 49.7905 66.6829 50.0913C66.7246 50.2412 66.7623 50.3964 66.7908 50.5526C66.8238 50.7083 66.8595 50.866 66.8731 51.0358C66.5693 51.3759 66.598 50.3976 66.3254 50.3768C66.346 50.6233 66.4335 50.8592 66.5297 51.0894L66.681 51.4257C66.7388 51.5337 66.7987 51.6392 66.8565 51.7472C67.0732 52.1765 67.2915 52.5609 67.2785 53.0323C67.0389 52.6857 66.8501 52.1191 66.6694 51.7348C66.5755 52.2559 66.5946 52.5472 66.6456 52.7923C66.6701 52.9162 66.7001 53.0276 66.739 53.1544C66.7846 53.278 66.8391 53.417 66.9008 53.595L66.8805 53.5247L67.0136 53.943L67.1833 54.3522C67.2419 54.486 67.2943 54.6275 67.3622 54.7602L67.577 55.1545L67.4132 54.7164C68.161 55.0128 68.548 55.4707 69.0541 55.9422C69.181 56.0583 69.2997 56.1847 69.4359 56.2997C69.5781 56.4068 69.725 56.5134 69.8806 56.6143C69.9594 56.6634 70.0382 56.7125 70.1216 56.7611C70.2085 56.7998 70.3021 56.8354 70.3931 56.8689C70.5797 56.9354 70.7771 56.9936 70.9875 57.0243C70.1733 56.8769 70.0509 56.8942 70.1263 57.0118C70.1965 57.1254 70.4484 57.3225 70.2918 57.4638C70.3745 57.5453 70.4703 57.637 70.5654 57.724C70.6667 57.8033 70.7613 57.8857 70.8424 57.9533C71.005 58.0932 71.0932 58.1999 70.9815 58.2088C71.4311 58.2551 71.7421 58.398 72.1071 58.579C72.2893 58.6672 72.4907 58.7202 72.7214 58.7626C72.8364 58.7814 72.9622 58.7919 73.0941 58.7947C73.2274 58.7901 73.3698 58.7634 73.5229 58.7283C73.538 58.7946 73.7562 58.8314 73.9437 58.8861C74.1287 58.9387 74.2878 58.9921 74.1803 59.1508C75.2713 59.1213 73.9399 58.9124 74.0546 58.7551C74.8848 58.6093 75.8086 58.7504 76.855 58.7404C77.8921 58.7314 79.0376 58.5519 80.0162 57.8901C80.4625 57.6783 80.7866 57.4462 81.0663 57.2548C81.3364 57.0433 81.5568 56.8474 81.7665 56.6598C81.9719 56.4562 82.1686 56.2584 82.4038 56.0489C82.6306 55.8287 82.8965 55.6013 83.2314 55.3233C83.533 55.2536 83.494 55.4158 83.3801 55.5988C83.2687 55.7838 83.0663 55.9729 83.0663 55.9729C83.9815 55.6382 84.5742 55.2019 85.2096 54.5561C85.1277 54.7516 85.3354 54.7216 85.6445 54.6746C86.2009 54.2098 85.7544 54.0152 86.6161 53.5884C86.5761 53.8 86.5531 54.1129 86.3624 54.4367C86.9713 53.8247 87.4747 53.1174 88.0782 52.4801C88.3989 52.5092 87.8826 53.0724 87.7324 53.3819C88.4394 52.6875 89.5751 51.6377 89.5893 51.1756L89.0233 51.4654C89.2907 51.2308 89.3578 51.589 89.1937 51.804C88.7174 52.5408 88.1795 52.4631 88.0603 52.3907L88.4891 51.9392C87.5241 51.7491 86.6357 53.5954 85.5932 54.312L85.68 53.5592C85.4348 53.9367 85.1823 54.3128 84.9174 54.6833C84.6104 54.7277 84.2875 54.5839 84.7362 54.1604C84.2991 54.3124 84.1641 54.458 84.0399 54.5953C83.9157 54.7325 83.8028 54.8661 83.4009 54.9409C83.3052 54.9455 83.3212 54.9036 83.3772 54.8428C83.164 55.0402 82.9546 55.249 82.733 55.4357C82.816 55.2494 82.4131 55.1811 82.9022 54.9735C82.1671 55.2439 81.6911 55.6167 81.2885 55.9171C81.083 56.0619 80.9041 56.1941 80.7309 56.2762C80.5577 56.3584 80.3896 56.386 80.2177 56.3435L80.3209 56.2651C79.8528 56.5101 79.6054 56.6389 79.488 56.7354C79.3705 56.8319 79.3779 56.8921 79.4089 56.9541C79.4353 57.0166 79.4855 57.081 79.4403 57.1922C79.3951 57.3034 79.2526 57.464 78.8847 57.6827C78.4385 57.4716 78.0089 57.2233 77.6046 56.9696L77.4794 57.4076C77.2587 57.4275 76.826 57.4614 76.8849 57.2898C76.1191 57.6744 77.0478 57.4508 76.6072 57.7676C76.3284 57.6959 76.0137 57.6966 75.6872 57.6965C75.359 57.6825 75.0185 57.7216 74.7072 57.6914C74.0788 57.6811 73.5612 57.5398 73.5079 57.2175C73.0774 57.4626 74.4636 57.6013 73.3105 57.6408C73.2194 57.2597 72.9106 57.2315 72.5039 57.1895C72.3053 57.1597 72.0769 57.1358 71.8518 57.0811C71.6336 57.0066 71.4156 56.8946 71.2351 56.724C71.6646 56.5284 72.349 57.0557 71.6616 56.3878C71.2834 56.5608 70.8958 56.2909 70.557 55.9587C70.4057 55.7775 70.2467 55.5902 70.096 55.4136C69.9627 55.2255 69.8255 55.0637 69.6714 54.9556C69.5754 55.0354 69.4541 55.0033 69.3046 54.8946C69.1618 54.7828 68.9674 54.6139 68.8108 54.3699C68.4429 53.9145 68.1498 53.2244 67.8274 52.6412C67.9249 52.6505 67.7506 52.0493 67.6564 51.2763C67.5596 50.5012 67.5764 49.5596 67.6746 48.9581L67.7543 48.9954C67.5259 48.8752 67.4256 48.4952 67.4293 48.025C67.4238 47.5559 67.5189 47.0064 67.5748 46.5392C67.8431 46.6404 67.9177 46.8286 67.9601 47.3308C68.0133 47.0542 68.0547 46.7767 68.1322 46.5065C68.0805 46.3907 68.0534 46.2648 68.049 46.0939C68.0472 45.925 68.0857 45.7206 68.1435 45.4435L68.4199 45.7645C68.4927 45.4949 68.5702 45.2247 68.6445 44.9479C68.709 44.6676 68.8126 44.3801 68.9057 44.0846C69.1236 43.5014 69.4127 42.886 69.9398 42.3355C69.8231 42.2065 69.4618 42.3257 69.2123 42.302C68.9628 42.2784 68.826 42.1001 69.2078 41.3396C69.3979 41.3963 69.6743 41.5247 69.4992 41.9195C69.5514 41.7886 69.6619 41.4228 69.8932 41.2396C69.8494 41.4775 69.8004 41.7113 69.7632 41.946C70.2772 41.4606 69.7652 41.4995 70.1231 41.0636C70.3241 41.2294 70.5272 40.8523 70.6394 41.0406C70.5702 41.1665 70.2523 41.3532 70.2126 41.5859C70.6169 41.1068 71.2211 40.6292 71.529 40.5729C71.3863 40.5198 71.2541 40.3409 71.5386 39.9774C72.3248 39.0854 72.0424 39.8902 72.6102 39.4804C72.6777 39.1481 73.3456 38.7496 73.0917 38.4588C73.3466 38.2186 73.517 38.3059 73.6888 38.2897C74.0064 37.7342 75.8145 36.3231 75.0152 36.4721L74.8776 36.557C74.8959 36.5336 74.9208 36.5071 74.9406 36.4765C75.2617 36.0663 75.642 35.6981 76.0468 35.3576C76.453 35.0098 76.8707 34.7169 77.3258 34.4618C78.2273 33.9574 79.179 33.6136 80.0173 33.4574L80.0238 33.5881C80.2667 33.5186 80.5145 33.5283 80.7599 33.5572C80.8726 33.5951 81.003 33.605 81.1066 33.6652L81.2753 33.7386L81.4309 33.8395C81.8586 34.1115 82.1136 34.5079 82.3321 34.8547C82.3463 34.9329 82.3524 35.0214 82.3394 35.1075C82.3218 35.1942 82.2943 35.2774 82.26 35.3427C82.1939 35.4752 82.0824 35.5428 82.0091 35.4813C82.0626 35.8623 82.0662 36.1038 82.0413 36.3817C81.9927 36.6577 81.9015 36.9883 81.56 37.5208C81.6187 37.0768 81.5338 37.1317 81.5088 37.1583C81.474 37.1813 81.5122 37.186 81.6934 36.6496C81.4932 37.1461 81.2752 37.4193 81.1126 37.7233C81.0323 37.874 80.9526 38.0293 80.8779 38.2263C80.8027 38.4187 80.728 38.6533 80.6284 38.9732C80.569 38.4284 79.8106 39.5097 79.5678 40.0231C79.7925 39.8431 80.0088 39.6523 80.2225 39.4595C79.9325 40.028 79.5714 40.4572 79.2368 40.9114L79.0486 40.4082C78.1495 41.2412 77.6702 42.2227 77.1653 43.1298C76.91 43.579 76.6441 43.999 76.3318 44.3658C76.0111 44.722 75.6305 45.0103 75.1597 45.1945C74.9445 45.8761 76.2114 44.3805 76.0856 45.0441C75.8817 45.2404 75.6538 45.4138 75.4211 45.5667C75.1858 45.7175 74.9353 45.8396 74.7114 45.9491C74.261 46.1661 73.8898 46.3193 73.7582 46.434C72.49 47.2838 73.1539 47.8747 71.8153 48.7824C72.0727 48.7745 72.4981 48.9693 71.6376 49.8493C70.7032 50.5081 70.1345 50.1593 70.626 49.6437C70.8333 49.4752 70.9668 49.4331 70.9869 49.4823C71.2332 49.2103 71.5597 48.8629 71.1121 49.0066L71.0958 49.22C70.5688 49.444 69.3409 50.3546 69.4848 49.9354C68.8855 50.5299 69.3441 50.3613 69.894 50.0547C69.2532 50.3864 68.7873 50.6875 68.3293 51.0158C67.8561 51.3154 67.3973 51.6555 66.7248 51.9582C66.9684 51.9144 67.2517 51.9645 67.0495 52.0784C65.0879 53.0009 66.376 52.8158 65.1121 53.5852C64.2601 53.7641 65.1245 52.9542 63.889 53.7835C63.0126 54.0313 63.5409 53.4901 63.7997 53.2237C62.7321 54.1007 61.5058 54.0411 60.8318 54.196C61.0239 54.0951 61.2157 53.9731 61.4046 53.8655C61.0653 54.0689 60.7625 54.1669 60.4565 54.2582L60.9019 54.4435C60.5179 54.5114 60.2102 54.5888 60.1832 54.4629C59.8531 54.7615 60.6188 54.8961 59.9068 55.3563C59.6347 55.3401 59.2544 55.4569 58.9083 55.5085C58.5614 55.5719 58.2563 55.5551 58.1615 55.3552C58.551 55.3712 58.7371 55.3368 58.8092 55.2927C58.884 55.2507 58.8468 55.1966 58.8019 55.1363C58.7135 55.0084 58.5999 54.8861 59.2268 54.7486C59.1083 54.7983 58.9738 54.8311 58.8251 54.8445C58.6769 54.8626 58.5092 54.8736 58.3349 54.8502C58.2803 54.8076 58.3782 54.7628 58.4685 54.733C58.2925 54.6957 58.1543 54.6796 58.041 54.6747C57.9311 54.6599 57.8447 54.6633 57.7758 54.6764C57.634 54.7078 57.5548 54.7715 57.4722 54.845C57.3089 54.9894 57.1023 55.2212 56.4105 55.0566C56.5259 54.9626 56.4704 54.8355 56.3689 54.7351C56.2675 54.6347 56.1284 54.5343 56.0197 54.5287C56.5044 54.6904 56.1596 55.0026 55.5871 54.969C55.4896 54.901 55.4056 54.8478 55.3273 54.8033C55.2506 54.7516 55.1847 54.7127 55.1195 54.6783C54.9901 54.6189 54.8922 54.5674 54.7951 54.5417C54.6004 54.4856 54.4481 54.4501 54.2641 54.2893C54.3892 54.4291 54.5168 54.5709 54.6587 54.6945C54.3707 54.779 53.9633 54.481 53.4602 53.995C53.5543 53.8426 53.977 54.3619 53.8669 54.1334C53.4511 54.0173 53.2503 53.5837 53.1193 53.1252C52.9851 52.6601 52.9181 52.1679 52.6315 51.7049C52.644 51.1913 53.036 51.5358 53.0356 51.1084C52.7587 50.5901 52.8081 50.2435 52.8603 49.9201C52.9252 49.5857 52.9898 49.2678 52.89 48.641C52.7301 48.8132 52.6684 48.9241 52.6102 48.8701C52.5519 48.8161 52.4962 48.6092 52.3773 48.1351C52.3907 48.8616 52.4729 49.575 52.6233 50.2496C52.4169 49.8285 52.2468 49.3771 52.1022 48.9038C52.0805 49.5735 52.3496 50.2783 52.3675 50.6566C52.0186 50.0485 52.1194 50.0855 51.8904 50.4423C52.066 49.9558 51.9713 49.5258 51.8823 49.0457C51.7985 48.5697 51.726 48.0524 51.9518 47.534L52.7195 47.6659C52.9924 46.9374 53.0353 46.2675 53.1417 45.5217C53.2492 44.7851 53.4207 43.9562 53.9887 43.1236C53.8493 43.2909 53.7028 43.4568 53.5718 43.6348C53.4029 43.2514 54.1271 42.4867 54.4041 41.8493C54.5849 42.041 54.8979 41.7374 55.1956 41.5978C55.1035 41.555 55.3242 41.2462 55.5425 40.8979C55.7555 40.5454 55.9765 40.1615 55.8344 39.9204C56.1314 39.755 56.4112 39.5847 56.7099 39.4332C57.3254 38.8556 57.5425 38.4016 57.76 37.9312C57.978 37.4654 58.2094 36.9933 58.8923 36.5061C58.6775 37.0372 59.3688 36.7157 58.6568 37.5612C58.8661 37.3901 59.0731 37.238 59.2123 37.1083C59.3547 36.9852 59.4339 36.884 59.3827 36.8104C59.7146 36.7394 60.4043 35.6336 60.9728 35.5761C61.1091 35.3645 61.0246 35.0765 61.584 34.7899C61.6701 34.8029 61.6449 34.9046 61.6449 34.9046C61.5814 34.7879 62.4124 34.2826 61.7975 34.2871C62.2736 34.2619 62.7604 34.1321 63.2231 34.0546C63.6904 33.9765 64.1132 33.9767 64.4924 34.1395C64.8777 34.2946 65.2188 34.6453 65.4001 35.0342C65.586 35.4226 65.6075 35.8498 65.4695 36.1438C65.5682 36.5687 65.5326 37.1438 65.3747 37.6985C65.2148 38.2559 64.943 38.8011 64.6651 39.2577C64.6342 39.1582 64.5578 39.1863 64.6843 39.0299C63.687 40.1168 64.7975 40.2281 63.505 41.4567C62.6244 41.9022 63.899 40.5842 63.4309 40.9255C63.0161 40.7599 62.7204 41.1859 62.3858 41.7363C62.2276 42.0187 62.0174 42.298 61.7976 42.5573C61.5753 42.8146 61.3259 43.0423 61.0389 43.1735L61.1903 42.9319C60.9861 43.0484 60.8117 43.2177 60.6451 43.4306C60.5617 43.537 60.4816 43.6501 60.3999 43.7705C60.3131 43.8868 60.2268 44.0077 60.1339 44.1317C59.7726 44.6361 59.3734 45.2156 58.8265 45.7004C58.8265 45.7004 58.8254 45.5948 58.7461 45.5998C58.5196 46.0924 58.056 46.6633 57.5266 47.2539C57.3917 47.3996 57.2568 47.5452 57.1198 47.6934C56.9797 47.835 56.8266 47.9664 56.6807 48.0993C56.3817 48.3635 56.0935 48.6194 55.8241 48.8566C55.9822 48.323 56.2367 48.3295 55.8188 48.216C55.3386 48.6316 56.2956 48.5431 55.3198 49.3831C54.8811 49.4836 54.0072 49.8296 53.7132 49.5953L54.7017 48.937C53.9286 48.8762 53.4232 49.7787 52.8483 50.0531L52.8053 49.8352C52.4409 50.1027 52.1592 50.2968 51.9383 50.4881C51.7147 50.6774 51.5435 50.8533 51.3698 51.0271C51.0118 51.3667 50.6503 51.7537 49.7445 52.1459L49.9974 52.1973C49.2414 53.1256 49.0594 52.3257 48.2445 53.1367L47.736 52.7806C47.4332 52.9749 46.9012 53.3121 46.3083 53.6897C45.7151 54.0838 45.014 54.4018 44.4229 54.6594C44.7108 54.3612 45.1874 54.0518 45.691 53.7509C46.1834 53.4161 46.6986 53.0949 47.0783 52.8185C46.7557 52.947 46.2081 53.1758 45.7143 53.4215C45.2115 53.6519 44.7493 53.868 44.6189 54.0506C44.8724 53.914 45.166 53.6833 45.4558 53.6715C45.1173 53.9969 44.6916 54.3001 44.18 54.5739C43.9265 54.7105 43.6488 54.8406 43.3514 54.9638C43.0491 55.0664 42.7273 55.1619 42.3831 55.2485C42.3683 54.7218 41.4804 54.9146 40.4335 55.1126C39.908 55.1954 39.3447 55.2946 38.8419 55.3324C38.5908 55.3536 38.3566 55.3587 38.1498 55.3392C37.9394 55.3085 37.7617 55.2573 37.6249 55.1754C37.0344 55.3413 36.4351 55.4542 35.8273 55.5353C35.2177 55.6026 34.598 55.5865 33.9667 55.5906C33.6515 55.5867 33.3348 55.5901 33.0138 55.5775C32.6937 55.5531 32.369 55.5292 32.0397 55.506C31.7104 55.4827 31.375 55.4672 31.0375 55.4543C30.868 55.4514 30.698 55.444 30.5213 55.4397C30.3481 55.4255 30.1755 55.416 29.9977 55.4025C30.9534 56.2678 29.1748 55.3571 29.2839 56.1753C28.6092 56.1706 28.3539 56.1383 28.3003 56.0838C27.6399 55.8683 26.9995 55.6057 26.3745 55.3343C25.9541 55.0261 27.0185 55.2605 26.9861 55.0718C25.5992 54.7734 26.4562 54.6361 25.5942 54.2502C25.6561 54.4118 25.5174 54.4874 25.264 54.4901C25.0142 54.483 24.6544 54.4023 24.2856 54.2476C24.6143 54.4589 24.9503 54.6716 25.2923 54.8766C24.7865 54.8701 24.4366 54.793 24.1723 54.6866C23.9095 54.573 23.7277 54.4307 23.5485 54.2905C23.3653 54.1554 23.1958 53.9976 22.9437 53.8756C22.6875 53.7589 22.3634 53.6433 21.8769 53.564L22.5349 53.5473C22.0497 53.4396 21.1996 53.1134 20.3907 52.7398C20.2867 52.6961 20.1827 52.6524 20.0834 52.6082C19.9835 52.5593 19.8841 52.515 19.7868 52.4681C19.5901 52.377 19.3885 52.3029 19.2054 52.2266C18.8452 52.0661 18.4869 51.9783 18.2065 51.9514C18.1252 51.7663 18.09 51.4582 18.4543 51.6722C17.5774 50.9523 16.5852 50.1923 15.8095 49.2628C15.0443 48.3413 14.4778 47.2782 14.4686 46.3539L14.703 46.4663C14.6206 46.272 14.48 46.12 14.3669 45.9435C14.2717 45.7601 14.2061 45.5497 14.2568 45.2711C14.3409 45.2867 14.4822 45.4057 14.4585 45.2113C14.4332 45.158 14.3869 45.0673 14.328 44.95C14.2784 44.8316 14.232 44.6822 14.1865 44.521C14.0909 44.1991 14.0148 43.8255 14.0823 43.5307C14.1607 43.6926 14.2206 43.8568 14.317 44.0118C14.3275 43.731 14.3586 43.4665 14.3539 43.2157C14.3552 43.0911 14.3518 42.967 14.3444 42.8481C14.3482 42.7255 14.3506 42.6101 14.3484 42.4953C14.3459 42.2631 14.3301 42.0372 14.3082 41.8191C14.2976 41.5972 14.2902 41.382 14.2709 41.1659C14.199 40.3056 14.1646 39.4454 14.3724 38.4524C14.6432 38.5345 14.9784 38.1437 15.281 37.6394C15.4261 37.3845 15.604 37.1091 15.7474 36.8403C15.8908 36.5715 16.0287 36.3151 16.1476 36.1151L16.209 36.1757C16.7814 34.9363 17.2344 33.8546 17.701 32.7878C18.1671 31.7163 18.6733 30.6469 19.3642 29.5128C19.7424 29.2812 20.1597 28.9085 20.5966 28.4466C20.8255 28.2238 21.0608 27.9766 21.3016 27.7171C21.4198 27.5876 21.5419 27.4529 21.6641 27.3183C21.7915 27.1877 21.9183 27.0524 22.0497 26.9166C23.0685 25.813 24.2487 24.685 25.3378 23.9463C24.9679 24.13 25.0851 23.5684 25.4011 23.2128C25.9322 22.8874 26.4677 21.8074 26.7204 22.2816L26.5436 22.4112C27.2261 22.5183 28.1299 21.6471 28.9455 21.0921L28.6794 20.4316C30.0255 20.0867 31.4059 19.1363 32.7123 18.2913C33.0443 18.0864 33.3657 17.8899 33.6737 17.6997C33.9874 17.5182 34.2953 17.3656 34.5797 17.2323C35.1526 16.9605 35.6776 16.8354 36.0872 16.9006C36.5885 16.4848 37.2916 16.2019 37.8109 15.8379L37.907 16.202C38.7146 15.9674 39.3212 15.8183 39.9654 15.6693C40.6117 15.5178 41.299 15.3565 42.2723 15.2097L41.9084 15.5195C42.4511 15.4627 42.7618 15.1783 43.097 14.8837C43.4252 14.6089 43.7758 14.3054 44.3087 14.3415C44.4003 14.5347 44.4894 14.7258 44.5692 14.9181C45.5152 15.0095 46.3929 15.37 47.1643 15.8021C47.9481 16.2398 48.6424 16.733 49.4365 17.2164C49.354 17.2523 49.2069 17.3172 48.9876 17.1372C49.2858 17.425 49.7378 18.0887 50.0801 18.6624C50.4306 19.2256 50.7276 19.6968 51.0149 19.394C50.7921 19.5128 50.9857 19.9449 51.2523 20.5137C51.525 21.0747 51.8638 21.7921 52.0614 22.3153L51.6684 22.2129C51.978 22.6144 52.1622 22.8339 52.2964 23.1064C52.4352 23.3784 52.5412 23.7084 52.6337 24.3712C52.5995 24.6878 52.3514 24.657 52.4273 24.239C52.27 25.2799 52.815 25.0491 52.5762 26.3278L52.3599 25.8444C52.2863 26.9174 52.4028 26.8328 52.6227 27.4613C52.711 28.1669 52.2407 29.5114 51.8728 29.5962C52.0473 29.7746 52.1922 30.424 51.9369 31.0282C51.7954 31.0807 51.7747 30.8342 51.7647 30.7133C51.4379 31.5588 51.3039 32.2328 51.2147 32.8496C51.1674 33.156 51.1206 33.446 51.0396 33.7259C50.9586 34.0059 50.8539 34.2841 50.6461 34.5443C50.5218 34.5266 50.4348 34.5842 50.3605 34.6684C50.4267 34.4982 50.4934 34.3327 50.5561 34.1724C50.609 34.0086 50.6604 33.852 50.7103 33.7027C50.8101 33.4039 50.9 33.1393 50.9718 32.9192C51.1207 32.4829 51.2143 32.2296 51.2072 32.2868C50.8833 32.1924 50.4736 33.2829 50.3067 32.2603C50.2875 32.7395 50.291 33.4038 50.2307 34.0852C50.1312 34.7527 49.9721 35.4321 49.6906 35.9362C49.639 35.9753 49.592 36.0139 49.5263 36.0337L49.5348 35.9105C49.408 36.1421 49.3517 36.3744 49.3233 36.6034C49.1288 36.916 48.9851 37.1049 48.8334 37.4217C48.5193 37.4271 48.1349 38.5709 47.8721 39.0938C48.2278 39.2172 47.8067 39.8675 48.4251 39.3717C48.361 39.4429 48.4388 39.2526 48.5848 38.8895C48.6122 38.8063 48.6519 38.7075 48.6558 38.6436C48.6601 38.6595 48.6644 38.6755 48.6667 38.694C48.8231 38.339 49.0278 37.8796 49.2602 37.358C49.2361 37.8542 49.172 38.3693 48.7118 38.8717C48.8003 39.2508 48.8768 39.6666 48.8822 39.8844C48.0299 40.3688 47.052 41.5966 46.6696 41.6197C46.2816 42.4256 45.7692 43.3478 45.3154 44.2111C44.8289 45.0572 44.4421 45.8724 44.3905 46.5481C44.154 47.0162 43.8643 46.8941 43.6607 46.9776C43.7891 46.7012 44.0253 46.4423 44.032 46.2465C43.8021 46.7114 43.3248 47.3051 42.9578 47.8595C42.5882 48.4119 42.3041 48.9139 42.3974 49.1586C41.3581 49.9782 42.5472 48.3253 41.4127 49.6943L41.4633 49.4157C40.032 50.4686 39.2317 51.6301 38.3652 52.8655C37.9058 53.4523 37.4285 54.046 36.8392 54.6064C36.5528 54.8973 36.2036 55.1348 35.8312 55.3751C35.4583 55.6108 35.0435 55.8305 34.5836 56.0275C34.8327 55.9126 34.9546 55.8531 35.0477 55.884C34.12 56.502 33.146 57.067 32.2223 57.7175L31.8736 57.9596L31.5135 58.1843L30.7911 58.6364C30.3086 58.9371 29.8357 59.2579 29.3449 59.5478C28.8426 59.8205 28.3449 60.0925 27.8446 60.3625L27.0917 60.7572C26.8392 60.882 26.5719 60.9826 26.313 61.0941C25.7915 61.3056 25.2689 61.5078 24.7414 61.6896C24.6106 61.7337 24.473 61.781 24.3529 61.8168L24.0728 61.8697C23.8888 61.9015 23.7175 61.9224 23.5616 61.9343C23.2063 61.987 23.0159 62.1018 22.784 62.2804C22.7243 62.33 22.6666 62.3769 22.6089 62.4239L22.517 62.4985L22.467 62.4929C22.3999 62.4822 22.3239 62.4563 22.2371 62.3799C22.3205 62.1772 22.4035 61.9909 22.4954 61.82C22.3059 61.7303 22.1026 61.546 21.8715 61.2689C21.7928 61.1234 21.7221 60.8713 21.6762 60.6679C21.6291 60.4552 21.6032 60.2422 21.5957 60.027C21.5788 59.5993 21.6068 59.1731 21.6428 58.7365C21.7005 57.8604 21.7542 56.9519 21.338 55.8305L21.0933 56.154C21.0597 55.3195 20.7877 53.5112 21.1114 53.6432C21.0611 53.5577 20.8294 53.3722 20.9635 53.0458L21.1718 53.0205L21.009 51.9927L20.878 50.9564C21.0091 50.163 21.2139 50.2437 21.4074 50.2319C21.6056 50.2195 21.778 50.1116 21.9252 48.9873C21.9379 48.1472 21.6949 46.4998 21.5043 46.7861C21.4379 47.1277 21.226 47.6444 21.0164 47.6394L21.0449 46.8327C20.4681 46.5905 19.9465 45.8179 19.1995 47.7833C19.2546 48.2746 19.3165 48.7626 19.3968 49.2484L19.0522 49.678L19.1641 48.4758C18.811 49.1249 19.0013 49.5879 19.1415 50.0829C18.9751 50.183 18.8485 50.3769 18.7701 50.6589C18.9395 51.1433 19.1098 51.6158 19.294 52.0866C19.0512 52.2524 18.8278 51.4411 18.6797 52.3846C18.9411 53.0457 19.2294 51.768 19.3917 52.8498C19.1146 53.5248 18.8896 53.3361 19.139 54.1302C18.9842 54.2477 18.8769 54.0799 18.803 53.7624C19 54.4736 18.9657 55.6569 19.3241 55.9961C19.1741 56.3644 19.2679 56.9613 19.3129 57.4655C19.3738 57.9654 19.3931 58.3741 19.0981 58.3819C19.2666 58.5892 19.7394 59.558 19.9005 60.1866C19.4449 59.6667 19.5446 60.2723 19.6855 60.9856C19.7214 61.1644 19.7604 61.3499 19.7911 61.5247C19.8409 61.7982 19.8864 62.0557 19.9242 62.2695C20.0002 62.7394 19.9957 63.0876 19.7925 63.0583C20.0434 63.3636 20.2603 63.814 20.4854 64.3503C20.5959 64.6211 20.7066 64.9129 20.8176 65.2259C20.8437 65.3049 20.8718 65.3814 20.9004 65.4624L20.9196 65.5235L20.9302 65.5527L20.9345 65.5687C20.9345 65.5687 20.9458 65.5649 20.9504 65.5644L21.0715 65.5167C21.231 65.4574 21.39 65.3934 21.5562 65.3308C22.2071 65.0824 22.8796 64.8384 23.5268 64.5787C23.8494 64.4501 24.1673 64.3221 24.4656 64.1871C24.6147 64.1196 24.7593 64.0527 24.8991 63.9863C25.0298 63.9211 25.1969 63.8467 25.256 63.7925C25.2398 63.8133 25.2215 63.8366 25.1991 63.8652C25.1695 63.8923 25.122 63.9263 25.0785 63.955C24.9875 64.0178 24.8815 64.073 24.7782 64.0926C24.9368 64.0451 25.0816 63.9993 25.2182 63.9639C25.3132 63.9335 25.3907 63.9146 25.4683 63.8958C25.6234 63.8581 25.7545 63.8351 25.8815 63.8173C26.1309 63.7822 26.3527 63.7716 26.6343 63.7114C26.5837 63.4498 26.8628 63.1575 27.2139 62.8586C27.3911 62.7126 27.5856 62.555 27.7715 62.4031C27.9489 62.2406 28.1172 62.0792 28.2438 61.9228C29.418 61.8831 27.9329 62.764 28.439 63.0429C28.2128 62.69 29.9261 61.8118 29.4343 61.6697C30.3071 61.5657 30.1348 61.481 30.7155 61.6592C30.5249 61.0201 31.3232 61.1718 31.7108 60.4786C32.8958 60.1416 32.2936 60.8468 33.3078 59.9951C33.6184 59.9032 33.5656 60.067 33.4316 60.2595C33.2998 60.4494 33.0721 60.6439 33.0721 60.6439L33.1168 60.6831ZM51.9587 36.5265L51.9639 36.5306C51.8769 36.7807 51.7999 36.9968 51.7529 37.1317C51.7964 37.0067 51.8548 36.8304 51.9566 36.5291L51.9587 36.5265ZM52.8413 34.0936C52.7244 34.3874 52.6275 34.7679 52.4725 35.1532C52.3179 35.1956 52.233 35.0579 52.3309 34.8205C52.3672 34.9829 52.624 34.4301 52.8413 34.0936ZM48.4814 38.08C48.598 37.7064 48.7165 37.6192 48.8086 37.6033C48.7352 37.7719 48.6585 37.9715 48.564 38.2367C48.5729 38.2521 48.5763 38.2799 48.5857 38.2998C48.5382 38.2375 48.4948 38.17 48.4814 38.08Z" fill="white"/>
<path id="Vector_28" d="M48.6249 38.9245C48.6079 38.9782 48.6099 39.0132 48.5807 39.0825C48.644 39.0231 48.7005 38.9669 48.7545 38.9087C48.7399 38.847 48.7207 38.7859 48.7094 38.731C48.6797 38.7956 48.6526 38.8624 48.6249 38.9245Z" fill="white"/>
<path id="Vector_29" d="M75.0115 36.4987L75.0576 36.472C75.015 36.4889 74.9725 36.5058 74.9395 36.5051C74.978 36.4934 74.9864 36.5041 75.0141 36.5007L75.0115 36.4987Z" fill="white"/>
<path id="Vector_30" d="M34.3322 14.066L34.3727 14.1479L34.5497 13.9808L34.3322 14.066Z" fill="white"/>
<path id="Vector_31" d="M66.2512 47.2668C66.2118 47.2904 66.1732 47.3397 66.1321 47.4457C66.1573 47.4403 66.1991 47.3601 66.2512 47.2668Z" fill="white"/>
<path id="Vector_32" d="M66.9082 53.6132C66.981 53.9214 67.101 54.2121 67.2175 54.5127C67.151 54.3141 67.0905 54.1453 67.0354 54.0017C66.9824 53.8554 66.9501 53.7255 66.9108 53.6152L66.9082 53.6132Z" fill="white"/>
<path id="Vector_33" d="M70.1319 57.5613C70.2233 57.5407 70.2636 57.5053 70.2999 57.475C70.2973 57.473 70.2947 57.471 70.2921 57.4689L70.1319 57.5613Z" fill="white"/>
<path id="Vector_34" d="M52.9744 56.4457C52.9121 56.3969 52.8483 56.3554 52.7857 56.3231C52.3458 56.029 52.6207 56.261 52.9744 56.4457Z" fill="white"/>
<path id="Vector_35" d="M73.7158 49.2065C73.581 49.4109 73.4482 49.6126 73.2865 49.8085C73.6054 49.5723 73.8443 49.3741 73.7158 49.2065Z" fill="white"/>
<path id="Vector_36" d="M59.1805 33.2981C59.1805 33.2981 59.1805 33.2981 59.1816 33.3074C59.2297 33.278 59.2706 33.2472 59.3187 33.2179L59.1811 33.3027L59.1805 33.2981Z" fill="white"/>
<path id="Vector_37" d="M72.4801 50.4582C72.8324 50.265 73.0907 50.0526 73.289 49.81C73.0264 50.0064 72.6984 50.2061 72.4801 50.4582Z" fill="white"/>
<path id="Vector_38" d="M89.3909 52.2469L89.5729 52.1214C89.5548 52.1071 89.554 52.0814 89.5558 52.0577L89.3909 52.2469Z" fill="white"/>
<path id="Vector_39" d="M89.5562 52.058L89.721 51.8688C89.6332 51.9382 89.5566 52.0039 89.5562 52.058Z" fill="white"/>
<path id="Vector_40" d="M90.0676 51.4742L89.721 51.8688C89.8625 51.7576 90.0419 51.63 90.0676 51.4742Z" fill="white"/>
<path id="Vector_41" d="M84.3267 55.8828L84.338 56.0341C84.3561 55.9896 84.3545 55.9381 84.3267 55.8828Z" fill="white"/>
<path id="Vector_42" d="M82.681 56.9195C83.1105 56.7239 83.8424 56.5807 84.3446 56.1531L84.3366 56.0296C84.2626 56.1936 83.9189 56.3224 83.5567 56.4534C83.1914 56.5778 82.8277 56.7161 82.6785 56.9175L82.681 56.9195Z" fill="white"/>
<path id="Vector_43" d="M74.763 57.2619C75.0055 57.3051 75.2522 57.3056 75.5012 57.3246C75.7481 57.3462 75.9988 57.3415 76.2475 57.3394C75.9723 57.2202 75.6347 57.0523 76.2889 56.9655C76.0568 56.9304 75.8923 56.9105 75.7737 56.9015C75.6561 56.8806 75.5876 56.8772 75.5459 56.8823C75.4672 56.8919 75.511 56.9429 75.5565 57.0078C75.6458 57.1238 75.7288 57.3227 74.7641 57.2711L74.763 57.2619Z" fill="white"/>
<path id="Vector_44" d="M70.6781 55.7354C70.9994 55.924 71.0363 55.8608 70.986 55.7754C70.9356 55.6899 70.8285 55.5432 70.8699 55.517C70.4361 55.3491 70.3125 55.2984 70.6781 55.7354Z" fill="white"/>
<path id="Vector_45" d="M81.8704 35.7867C81.7609 35.7554 81.654 35.7262 81.5404 35.7001C81.5384 36.1842 81.672 35.7193 81.8704 35.7867Z" fill="white"/>
<path id="Vector_46" d="M80.4882 42.2977C80.6769 42.169 80.8499 42.0282 81.0282 41.8913L80.948 41.4642C80.7939 41.7414 80.6501 42.0267 80.4862 42.3003L80.4882 42.2977Z" fill="white"/>
<path id="Vector_47" d="M76.165 43.8669L76.3052 43.629C76.1079 43.9185 75.9179 44.2094 75.7076 44.4887C75.8662 44.2862 76.0195 44.0796 76.165 43.8669Z" fill="white"/>
<path id="Vector_48" d="M64.8387 35.4145C64.9417 35.3151 65.0395 35.2116 65.1361 35.0988C65.019 34.9862 64.8611 35.0008 64.7784 35.0743C64.6943 35.155 64.681 35.2576 64.8387 35.4145Z" fill="white"/>
<path id="Vector_49" d="M49.8557 51.8597C49.5161 51.7907 48.8377 51.9673 48.5372 52.3351C49.0515 52.1221 49.6227 52.029 49.8557 51.8597Z" fill="white"/>
<path id="Vector_50" d="M30.0187 20.203C29.9046 20.3272 29.799 20.4623 29.6881 20.5932C29.916 20.3822 30.1581 20.1907 30.397 19.9924L30.0166 20.2056L30.0187 20.203Z" fill="white"/>
</g>
</g>
<defs>
<clipPath id="clip0_819_10359">
<rect width="73.5245" height="63.4841" fill="white" transform="translate(39.1309 -0.800049) rotate(38.0525)"/>
</clipPath>
</defs>
</svg>
